# Blender 4.4.0
# www.blender.org
mtllib sphere.mtl
o sphere
v 0.000000 -0.500000 0.000000
v 0.000000 0.500000 -0.000000
v 0.066987 0.433013 0.250000
v 0.116025 0.250000 0.433013
v 0.133975 0.000000 0.500000
v 0.116025 -0.250000 0.433013
v 0.066987 -0.433013 0.250000
v 0.183013 0.433013 0.183013
v 0.316987 0.250000 0.316987
v 0.366025 0.000000 0.366025
v 0.316987 -0.250000 0.316987
v 0.183013 -0.433013 0.183013
v 0.250000 0.433013 0.066987
v 0.433013 0.250000 0.116025
v 0.500000 0.000000 0.133975
v 0.433013 -0.250000 0.116025
v 0.250000 -0.433013 0.066987
v 0.250000 0.433013 -0.066987
v 0.433013 0.250000 -0.116025
v 0.500000 -0.000000 -0.133975
v 0.433013 -0.250000 -0.116025
v 0.250000 -0.433013 -0.066987
v 0.183013 0.433013 -0.183013
v 0.316987 0.250000 -0.316987
v 0.366025 -0.000000 -0.366025
v 0.316987 -0.250000 -0.316987
v 0.183013 -0.433013 -0.183013
v 0.066987 0.433013 -0.250000
v 0.116025 0.250000 -0.433013
v 0.133975 -0.000000 -0.500000
v 0.116025 -0.250000 -0.433013
v 0.066987 -0.433013 -0.250000
v -0.066987 0.433013 -0.250000
v -0.116025 0.250000 -0.433013
v -0.133975 -0.000000 -0.500000
v -0.116025 -0.250000 -0.433013
v -0.066987 -0.433013 -0.250000
v -0.183013 0.433013 -0.183013
v -0.316987 0.250000 -0.316987
v -0.366025 -0.000000 -0.366025
v -0.316987 -0.250000 -0.316987
v -0.183013 -0.433013 -0.183013
v -0.250000 0.433013 -0.066987
v -0.433013 0.250000 -0.116025
v -0.500000 -0.000000 -0.133975
v -0.433013 -0.250000 -0.116025
v -0.250000 -0.433013 -0.066987
v -0.250000 0.433013 0.066987
v -0.433013 0.250000 0.116025
v -0.500000 0.000000 0.133975
v -0.433013 -0.250000 0.116025
v -0.250000 -0.433013 0.066987
v -0.183013 0.433013 0.183013
v -0.316987 0.250000 0.316987
v -0.366025 0.000000 0.366025
v -0.316987 -0.250000 0.316987
v -0.183013 -0.433013 0.183013
v -0.066987 0.433013 0.250000
v -0.116025 0.250000 0.433013
v -0.133975 0.000000 0.500000
v -0.116025 -0.250000 0.433013
v -0.066987 -0.433013 0.250000
vn 0.1294 0.9659 0.2241
vn 0.3536 0.7071 0.6124
vn 0.4830 0.2588 0.8365
vn 0.4830 -0.2588 0.8365
vn 0.3536 -0.7071 0.6124
vn 0.1294 -0.9659 0.2241
vn 0.2241 0.9659 0.1294
vn 0.6124 0.7071 0.3536
vn 0.8365 0.2588 0.4830
vn 0.8365 -0.2588 0.4830
vn 0.6124 -0.7071 0.3536
vn 0.2241 -0.9659 0.1294
vn 0.2588 0.9659 -0.0000
vn 0.7071 0.7071 -0.0000
vn 0.9659 0.2588 -0.0000
vn 0.9659 -0.2588 -0.0000
vn 0.7071 -0.7071 -0.0000
vn 0.2588 -0.9659 -0.0000
vn 0.2241 0.9659 -0.1294
vn 0.6124 0.7071 -0.3536
vn 0.8365 0.2588 -0.4830
vn 0.8365 -0.2588 -0.4830
vn 0.6124 -0.7071 -0.3536
vn 0.2241 -0.9659 -0.1294
vn 0.1294 0.9659 -0.2241
vn 0.3536 0.7071 -0.6124
vn 0.4830 0.2588 -0.8365
vn 0.4830 -0.2588 -0.8365
vn 0.3536 -0.7071 -0.6124
vn 0.1294 -0.9659 -0.2241
vn -0.0000 0.9659 -0.2588
vn -0.0000 0.7071 -0.7071
vn -0.0000 0.2588 -0.9659
vn -0.0000 -0.2588 -0.9659
vn -0.0000 -0.7071 -0.7071
vn -0.0000 -0.9659 -0.2588
vn -0.1294 0.9659 -0.2241
vn -0.3536 0.7071 -0.6124
vn -0.4830 0.2588 -0.8365
vn -0.4830 -0.2588 -0.8365
vn -0.3536 -0.7071 -0.6124
vn -0.1294 -0.9659 -0.2241
vn -0.2241 0.9659 -0.1294
vn -0.6124 0.7071 -0.3536
vn -0.8365 0.2588 -0.4830
vn -0.8365 -0.2588 -0.4830
vn -0.6124 -0.7071 -0.3536
vn -0.2241 -0.9659 -0.1294
vn -0.2588 0.9659 -0.0000
vn -0.7071 0.7071 -0.0000
vn -0.9659 0.2588 -0.0000
vn -0.9659 -0.2588 -0.0000
vn -0.7071 -0.7071 -0.0000
vn -0.2588 -0.9659 -0.0000
vn -0.2241 0.9659 0.1294
vn -0.6124 0.7071 0.3536
vn -0.8365 0.2588 0.4830
vn -0.8365 -0.2588 0.4830
vn -0.6124 -0.7071 0.3536
vn -0.2241 -0.9659 0.1294
vn -0.1294 0.9659 0.2241
vn -0.3536 0.7071 0.6124
vn -0.4830 0.2588 0.8365
vn -0.4830 -0.2588 0.8365
vn -0.3536 -0.7071 0.6124
vn -0.1294 -0.9659 0.2241
vn -0.0000 0.9659 0.2588
vn -0.0000 0.7071 0.7071
vn -0.0000 0.2588 0.9659
vn -0.0000 -0.2588 0.9659
vn -0.0000 -0.7071 0.7071
vn -0.0000 -0.9659 0.2588
vt 0.000000 0.741175
vt 0.133975 0.741175
vt 0.066987 1.000000
vt 0.183013 1.000000
vt 0.049038 1.000000
vt 0.250000 1.000000
vt 0.017950 1.000000
vt 0.017950 0.741175
vt 0.267950 1.000000
vt 0.000000 1.000000
vt 0.049038 0.741175
vt 0.232050 1.000000
vt 0.133975 1.000000
vt 0.066987 0.741175
vt 0.250000 0.741175
vt 0.232050 0.741175
vt 0.267950 0.741175
vt 0.183013 0.741175
s 1
usemtl none
f 3/1/1 8/2/1 2/3/1
f 4/1/2 8/4/2 3/5/2
f 5/1/3 9/6/3 4/7/3
f 6/8/4 10/9/4 5/10/4
f 7/11/5 11/12/5 6/10/5
f 12/13/6 7/10/6 1/14/6
f 8/1/7 13/2/7 2/3/7
f 9/1/8 13/4/8 8/5/8
f 10/1/9 14/6/9 9/7/9
f 11/8/10 15/9/10 10/10/10
f 12/11/11 16/12/11 11/10/11
f 17/13/12 12/10/12 1/14/12
f 13/1/13 18/2/13 2/3/13
f 14/1/14 18/4/14 13/5/14
f 15/1/15 19/6/15 14/7/15
f 16/8/16 20/9/16 15/10/16
f 17/11/17 21/12/17 16/10/17
f 22/13/18 17/10/18 1/14/18
f 18/1/19 23/2/19 2/3/19
f 19/1/20 23/4/20 18/5/20
f 20/1/21 24/6/21 19/7/21
f 20/10/22 26/15/22 25/9/22
f 22/11/23 26/12/23 21/10/23
f 27/13/24 22/10/24 1/14/24
f 23/1/25 28/2/25 2/3/25
f 23/5/26 29/16/26 28/4/26
f 25/1/27 29/6/27 24/7/27
f 26/8/28 30/9/28 25/10/28
f 27/11/29 31/12/29 26/10/29
f 32/13/30 27/10/30 1/14/30
f 28/1/31 33/2/31 2/3/31
f 29/1/32 33/4/32 28/5/32
f 30/1/33 34/6/33 29/7/33
f 31/8/34 35/9/34 30/10/34
f 32/11/35 36/12/35 31/10/35
f 37/13/36 32/10/36 1/14/36
f 33/1/37 38/2/37 2/3/37
f 34/1/38 38/4/38 33/5/38
f 35/1/39 39/6/39 34/7/39
f 36/8/40 40/9/40 35/10/40
f 37/11/41 41/12/41 36/10/41
f 42/13/42 37/10/42 1/14/42
f 38/1/43 43/2/43 2/3/43
f 39/1/44 43/4/44 38/5/44
f 40/1/45 44/6/45 39/7/45
f 41/8/46 45/9/46 40/10/46
f 42/11/47 46/12/47 41/10/47
f 47/13/48 42/10/48 1/14/48
f 43/1/49 48/2/49 2/3/49
f 44/1/50 48/4/50 43/5/50
f 45/1/51 49/6/51 44/7/51
f 46/8/52 50/9/52 45/10/52
f 47/11/53 51/12/53 46/10/53
f 52/13/54 47/10/54 1/14/54
f 48/1/55 53/2/55 2/3/55
f 49/1/56 53/4/56 48/5/56
f 50/1/57 54/6/57 49/7/57
f 50/10/58 56/15/58 55/9/58
f 52/11/59 56/12/59 51/10/59
f 57/13/60 52/10/60 1/14/60
f 53/1/61 58/2/61 2/3/61
f 53/5/62 59/16/62 58/4/62
f 55/1/63 59/6/63 54/7/63
f 56/8/64 60/9/64 55/10/64
f 57/11/65 61/12/65 56/10/65
f 62/13/66 57/10/66 1/14/66
f 58/1/67 3/2/67 2/3/67
f 59/1/68 3/4/68 58/5/68
f 60/1/69 4/6/69 59/7/69
f 61/8/70 5/9/70 60/10/70
f 62/11/71 6/12/71 61/10/71
f 7/13/72 62/10/72 1/14/72
f 4/1/2 9/16/2 8/4/2
f 5/1/3 10/17/3 9/6/3
f 6/8/4 11/15/4 10/9/4
f 7/11/5 12/18/5 11/12/5
f 9/1/8 14/16/8 13/4/8
f 10/1/9 15/17/9 14/6/9
f 11/8/10 16/15/10 15/9/10
f 12/11/11 17/18/11 16/12/11
f 14/1/14 19/16/14 18/4/14
f 15/1/15 20/17/15 19/6/15
f 16/8/16 21/15/16 20/9/16
f 17/11/17 22/18/17 21/12/17
f 19/1/20 24/16/20 23/4/20
f 20/1/21 25/17/21 24/6/21
f 20/10/22 21/8/22 26/15/22
f 22/11/23 27/18/23 26/12/23
f 23/5/26 24/1/26 29/16/26
f 25/1/27 30/17/27 29/6/27
f 26/8/28 31/15/28 30/9/28
f 27/11/29 32/18/29 31/12/29
f 29/1/32 34/16/32 33/4/32
f 30/1/33 35/17/33 34/6/33
f 31/8/34 36/15/34 35/9/34
f 32/11/35 37/18/35 36/12/35
f 34/1/38 39/16/38 38/4/38
f 35/1/39 40/17/39 39/6/39
f 36/8/40 41/15/40 40/9/40
f 37/11/41 42/18/41 41/12/41
f 39/1/44 44/16/44 43/4/44
f 40/1/45 45/17/45 44/6/45
f 41/8/46 46/15/46 45/9/46
f 42/11/47 47/18/47 46/12/47
f 44/1/50 49/16/50 48/4/50
f 45/1/51 50/17/51 49/6/51
f 46/8/52 51/15/52 50/9/52
f 47/11/53 52/18/53 51/12/53
f 49/1/56 54/16/56 53/4/56
f 50/1/57 55/17/57 54/6/57
f 50/10/58 51/8/58 56/15/58
f 52/11/59 57/18/59 56/12/59
f 53/5/62 54/1/62 59/16/62
f 55/1/63 60/17/63 59/6/63
f 56/8/64 61/15/64 60/9/64
f 57/11/65 62/18/65 61/12/65
f 59/1/68 4/16/68 3/4/68
f 60/1/69 5/17/69 4/6/69
f 61/8/70 6/15/70 5/9/70
f 62/11/71 7/18/71 6/12/71
